HIERARCHY
ROOT Hips
{
	OFFSET 15.585500 22.159004 44.358299
	CHANNELS 6 Xposition Yposition Zposition Zrotation Xrotation Yrotation
	JOINT Chest
	{
		OFFSET -0.128500 0.160400 6.566002
		CHANNELS 6 Xposition Yposition Zposition Zrotation Xrotation Yrotation
		JOINT Chest2
		{
			OFFSET 0.000000 0.000000 3.554802
			CHANNELS 6 Xposition Yposition Zposition Zrotation Xrotation Yrotation
			JOINT Neck
			{
				OFFSET 0.000000 0.000000 8.267998
				CHANNELS 6 Xposition Yposition Zposition Zrotation Xrotation Yrotation
				JOINT Head
				{
					OFFSET 0.000000 0.000002 2.173897
					CHANNELS 6 Xposition Yposition Zposition Zrotation Xrotation Yrotation
					End Site
					{
						OFFSET 0.000000 0.000000 7.718697
					}
				}
			}
			JOINT LeftCollar
			{
				OFFSET 2.057500 0.117599 5.946301
				CHANNELS 6 Xposition Yposition Zposition Zrotation Xrotation Yrotation
				JOINT LeftShoulder
				{
					OFFSET 4.957699 0.000000 0.000000
					CHANNELS 6 Xposition Yposition Zposition Zrotation Xrotation Yrotation
					JOINT LeftElbow
					{
						OFFSET 0.000000 0.000000 -8.465500
						CHANNELS 6 Xposition Yposition Zposition Zrotation Xrotation Yrotation
						JOINT LeftWrist
						{
							OFFSET 0.000000 -0.000002 -14.594898
							CHANNELS 6 Xposition Yposition Zposition Zrotation Xrotation Yrotation
							End Site
							{
								OFFSET 0.000000 0.000000 -2.173901
							}
						}
					}
				}
			}
			JOINT RightCollar
			{
				OFFSET -3.048500 -0.728800 6.604099
				CHANNELS 6 Xposition Yposition Zposition Zrotation Xrotation Yrotation
				JOINT RightShoulder
				{
					OFFSET -3.710299 0.000000 0.000000
					CHANNELS 6 Xposition Yposition Zposition Zrotation Xrotation Yrotation
					JOINT RightElbow
					{
						OFFSET 0.000000 0.000000 -10.450901
						CHANNELS 6 Xposition Yposition Zposition Zrotation Xrotation Yrotation
						JOINT RightWrist
						{
							OFFSET 0.000000 0.000000 -12.539200
							CHANNELS 6 Xposition Yposition Zposition Zrotation Xrotation Yrotation
							End Site
							{
								OFFSET 0.000000 -0.000002 -2.173901
							}
						}
					}
				}
			}
		}
	}
	JOINT LeftHip
	{
		OFFSET 2.442599 -0.601400 -2.767502
		CHANNELS 6 Xposition Yposition Zposition Zrotation Xrotation Yrotation
		JOINT LeftKnee
		{
			OFFSET 0.000000 -0.000002 -17.033703
			CHANNELS 6 Xposition Yposition Zposition Zrotation Xrotation Yrotation
			JOINT LeftAnkle
			{
				OFFSET 0.000000 -0.000002 -19.318800
				CHANNELS 6 Xposition Yposition Zposition Zrotation Xrotation Yrotation
				End Site
				{
					OFFSET 0.000000 -8.281900 0.000000
				}
			}
		}
	}
	JOINT RightHip
	{
		OFFSET -3.126200 -0.601400 -2.283501
		CHANNELS 6 Xposition Yposition Zposition Zrotation Xrotation Yrotation
		JOINT RightKnee
		{
			OFFSET 0.000000 -0.000002 -16.919401
			CHANNELS 6 Xposition Yposition Zposition Zrotation Xrotation Yrotation
			JOINT RightAnkle
			{
				OFFSET 0.000000 -0.000002 -18.035900
				CHANNELS 6 Xposition Yposition Zposition Zrotation Xrotation Yrotation
				End Site
				{
					OFFSET 0.000000 -9.230099 0.000000
				}
			}
		}
	}
}
MOTION
Frames: 5
Frame Time: 0.041667
17.489103 36.476799 10.269093 -54.684059 29.593567 -16.633232 -0.128497 0.160403 6.566005 6.914969 6.741187 24.912514 0.000002 -0.000000 3.554806 -4.352777 -10.132452 -1.420535 -0.000001 0.000009 8.267994 29.338070 -9.403092 24.993785 0.000000 -0.000001 2.173896 3.014032 -10.811992 6.261685 2.057499 0.117606 5.946304 4.851788 -11.174634 20.411769 4.957695 0.000007 -0.000002 -18.404039 -5.424240 -111.992542 -0.000003 -0.000000 -8.465502 513.784588 -111.723610 98.623082 -0.000000 0.000003 -14.594902 -988.382140 -6.746419 -279.620076 -3.048503 -0.728795 6.604096 42.015813 19.519612 13.949939 -3.710290 -0.000006 -0.000004 -15.733272 -10.558020 123.187134 -0.000004 -0.000005 -10.450891 998.385034 2.184248 1083.135661 -0.000006 0.000004 -12.539195 112.437311 186.808529 -219.441288 2.442602 -0.601397 -2.767503 116.713344 -6.760253 124.523515 -0.000004 -0.000001 -17.033705 -379.791685 40.564005 357.823966 0.000000 -0.000002 -19.318802 -217.714315 129.991942 540.074314 -3.126193 -0.601396 -2.283503 -112.069915 -41.418243 -106.776409 -0.000005 -0.000006 -16.919399 406.860271 -41.295303 -148.835737 -0.000006 -0.000004 -18.035900 214.533728 48.851012 -73.778385
17.490503 36.480904 10.270103 -54.545962 29.640723 -16.692337 -0.128501 0.160398 6.566003 6.485429 6.689113 24.991435 -0.000001 0.000002 3.554806 -4.204901 -10.213390 -1.403798 -0.000001 0.000006 8.268000 29.418639 -9.576935 24.987914 0.000001 -0.000001 2.173899 3.059084 -10.704401 6.227147 2.057501 0.117609 5.946304 4.948587 -10.955682 20.707120 4.957697 0.000003 -0.000003 -18.651532 -5.524267 -112.273468 -0.000001 0.000000 -8.465502 513.363138 -111.937272 98.197705 -0.000003 0.000002 -14.594898 -988.337553 -6.695065 -279.710207 -3.048498 -0.728796 6.604106 40.427162 17.232946 13.558160 -3.710293 0.000001 -0.000005 -13.369857 -9.057504 124.368224 0.000000 0.000001 -10.450893 998.174009 2.184472 1083.121126 -0.000001 0.000000 -12.539193 112.945224 186.870301 -219.299015 2.442595 -0.601398 -2.767508 116.666775 -6.752572 124.618222 -0.000003 -0.000002 -17.033707 -380.596773 40.742724 358.256645 -0.000002 -0.000001 -19.318802 -217.178104 130.396767 539.609096 -3.126199 -0.601404 -2.283502 -112.212290 -41.413677 -106.887317 -0.000001 -0.000003 -16.919399 406.873577 -41.311822 -148.793062 -0.000007 -0.000001 -18.035896 214.577319 48.842427 -73.848442
17.491701 36.483307 10.271996 -54.452566 29.669905 -16.739718 -0.128489 0.160399 6.566001 6.025836 6.548981 25.058070 0.000003 0.000001 3.554801 -4.025448 -10.174522 -1.336723 0.000009 0.000004 8.267995 29.632994 -9.860555 24.969167 0.000001 0.000008 2.173904 3.185386 -10.708129 6.117412 2.057509 0.117607 5.946301 5.021472 -10.740170 20.858228 4.957695 0.000005 0.000001 -18.873279 -5.693399 -112.480245 -0.000001 -0.000006 -8.465504 513.036218 -111.718611 97.795564 -0.000004 -0.000001 -14.594904 -988.757855 -6.533951 -279.896945 -3.048498 -0.728799 6.604103 40.967096 17.750910 12.505791 -3.710291 0.000006 -0.000001 -13.668014 -9.872276 125.036872 -0.000000 -0.000003 -10.450896 998.421863 2.185831 1083.102111 -0.000001 0.000002 -12.539198 113.049903 186.889221 -219.032815 2.442599 -0.601397 -2.767502 116.668961 -6.695107 124.697357 -0.000002 -0.000000 -17.033705 -381.440739 40.987265 358.712164 -0.000006 -0.000004 -19.318800 -216.639803 130.843557 538.585114 -3.126198 -0.601394 -2.283502 -112.311171 -41.442528 -106.975946 -0.000004 0.000001 -16.919395 406.891718 -41.307376 -148.738584 -0.000003 -0.000003 -18.035892 214.623969 48.819972 -73.903439
17.494202 36.483906 10.272495 -54.320160 29.810620 -16.749687 -0.128497 0.160401 6.565998 5.484141 6.202314 25.116950 0.000001 0.000005 3.554806 -3.853406 -10.207100 -1.314088 0.000000 0.000005 8.268002 29.686652 -10.084561 24.887258 0.000001 0.000005 2.173898 3.486154 -10.820568 6.011189 2.057501 0.117601 5.946305 5.087226 -10.529663 20.890004 4.957696 0.000008 -0.000003 -19.017192 -5.781585 -112.659756 -0.000004 0.000003 -8.465496 512.456799 -111.714075 97.001322 0.000001 0.000001 -14.594896 -989.027456 -6.286216 -280.158486 -3.048503 -0.728803 6.604104 41.480746 18.152261 11.008374 -3.710292 -0.000004 -0.000007 -14.006113 -10.243788 126.095346 -0.000001 -0.000001 -10.450889 997.888124 2.110987 1083.013919 0.000003 0.000001 -12.539186 113.384726 186.929164 -218.551587 2.442597 -0.601397 -2.767508 116.671092 -6.669387 124.921756 -0.000004 0.000002 -17.033705 -382.338663 41.194196 359.191999 -0.000001 -0.000004 -19.318804 -216.126351 131.297655 537.567088 -3.126203 -0.601395 -2.283504 -112.505209 -41.344682 -107.198644 -0.000005 -0.000002 -16.919394 406.952178 -41.262406 -148.680336 -0.000001 -0.000001 -18.035892 214.680919 48.783807 -73.944789
17.497305 36.483604 10.272297 -54.235479 29.932573 -16.759867 -0.128493 0.160394 6.566005 5.258019 5.958208 25.106584 0.000004 -0.000001 3.554806 -3.804158 -10.156878 -1.299240 0.000001 0.000002 8.268001 29.360384 -10.336299 25.120883 -0.000001 0.000001 2.173897 3.856957 -10.989527 5.867713 2.057503 0.117596 5.946305 5.006998 -10.525876 20.866752 4.957700 0.000007 0.000002 -18.948536 -5.818539 -112.660268 0.000006 0.000005 -8.465498 512.377624 -111.842312 96.735792 -0.000005 -0.000003 -14.594899 -988.862658 -5.733369 -280.166655 -3.048496 -0.728805 6.604103 41.413298 18.150738 11.187907 -3.710289 0.000004 -0.000008 -14.112400 -9.913690 125.818027 0.000000 -0.000008 -10.450894 997.380177 2.064758 1082.941902 -0.000004 0.000003 -12.539192 113.704912 186.975950 -218.088473 2.442601 -0.601404 -2.767502 116.697580 -6.689302 125.116389 -0.000001 -0.000001 -17.033707 -382.779811 41.302082 359.427777 -0.000002 -0.000003 -19.318802 -215.868183 131.642457 536.167883 -3.126197 -0.601400 -2.283500 -112.667563 -41.224539 -107.411931 -0.000006 0.000001 -16.919397 407.081488 -41.170652 -148.620094 -0.000005 -0.000004 -18.035894 214.749221 48.736839 -73.964884
